<svg xmlns="http://www.w3.org/2000/svg" width="0" height="0" style="position:absolute" aria-hidden="true">
<!--
  Skybridge glyph sprite — custom filled, dimensional weather/UI glyphs.
  Inline this once in the panel; cards reference a glyph with
  <svg width.. height..><use href="#i-moon"/></svg>. Gradients are defined once
  here and resolve document-wide. Add new glyphs as filled <symbol>s — never line
  icons (see docs/architecture/skybridge-design-system.md §5).
-->
<defs>
  <radialGradient id="moonG" cx="38%" cy="32%"><stop offset="0" stop-color="#fff7e0"/><stop offset="1" stop-color="#ffce70"/></radialGradient>
  <mask id="moonM"><rect width="32" height="32" fill="#fff"/><circle cx="23.5" cy="10.5" r="10.5" fill="#000"/></mask>
  <radialGradient id="sunG" cx="42%" cy="38%"><stop offset="0" stop-color="#fff1a6"/><stop offset=".6" stop-color="#ffc23d"/><stop offset="1" stop-color="#ff9b2f"/></radialGradient>
  <linearGradient id="cloudG" x1="0" y1="0" x2="0" y2="1"><stop offset="0" stop-color="#ffffff"/><stop offset="1" stop-color="#cdd8ec"/></linearGradient>
  <linearGradient id="stormG" x1="0" y1="0" x2="0" y2="1"><stop offset="0" stop-color="#dbe1f0"/><stop offset="1" stop-color="#9aa6c4"/></linearGradient>
  <linearGradient id="rainG" x1="0" y1="0" x2="0" y2="1"><stop offset="0" stop-color="#e9effb"/><stop offset="1" stop-color="#b0c1e6"/></linearGradient>
</defs>
<symbol id="i-moon" viewBox="0 0 32 32"><circle cx="15" cy="16" r="11" fill="url(#moonG)" mask="url(#moonM)"/></symbol>
<symbol id="i-sun" viewBox="0 0 32 32"><g stroke="#ffb22e" stroke-width="2.4" stroke-linecap="round"><line x1="16" y1="1.5" x2="16" y2="5"/><line x1="16" y1="27" x2="16" y2="30.5"/><line x1="1.5" y1="16" x2="5" y2="16"/><line x1="27" y1="16" x2="30.5" y2="16"/><line x1="5.8" y1="5.8" x2="8.3" y2="8.3"/><line x1="23.7" y1="23.7" x2="26.2" y2="26.2"/><line x1="5.8" y1="26.2" x2="8.3" y2="23.7"/><line x1="23.7" y1="8.3" x2="26.2" y2="5.8"/></g><circle cx="16" cy="16" r="7.4" fill="url(#sunG)"/></symbol>
<symbol id="i-cloud" viewBox="0 0 24 22"><path d="M6.5 18.5h11a4 4 0 0 0 .6-7.94A5.6 5.6 0 0 0 6.3 8.1 4.2 4.2 0 0 0 6.5 18.5Z" fill="url(#cloudG)" stroke="rgba(80,110,150,.18)" stroke-width=".5"/></symbol>
<symbol id="i-rain" viewBox="0 0 24 26"><path d="M6.5 14h11a4 4 0 0 0 .6-7.94A5.6 5.6 0 0 0 6.3 3.6 4.2 4.2 0 0 0 6.5 14Z" fill="url(#rainG)"/><g fill="#6fa8ff"><path d="M9 17.5l-1 2.6a.85.85 0 0 0 1.6.5l.8-2.5z"/><path d="M13.5 17.5l-1 2.6a.85.85 0 0 0 1.6.5l.8-2.5z"/></g></symbol>
<symbol id="i-storm" viewBox="0 0 24 26"><path d="M6.5 14h11a4 4 0 0 0 .6-7.94A5.6 5.6 0 0 0 6.3 3.6 4.2 4.2 0 0 0 6.5 14Z" fill="url(#stormG)"/><path d="M13 13l-4.2 6.4h3l-1 5 5-7.4h-3l1.2-4z" fill="#ffd23d"/></symbol>
</svg>
